<?xml version="1.0" encoding="utf-8"?>
<!-- Generator: Adobe Illustrator 19.1.0, SVG Export Plug-In . SVG Version: 6.00 Build 0)  -->
<!DOCTYPE svg PUBLIC "-//W3C//DTD SVG 1.1//EN" "http://www.w3.org/Graphics/SVG/1.1/DTD/svg11.dtd">
<svg version="1.1" id="Layer_1" xmlns="http://www.w3.org/2000/svg" xmlns:xlink="http://www.w3.org/1999/xlink" x="0px" y="0px"
	 viewBox="0 0 2416 352" style="enable-background:new 0 0 2416 352;" xml:space="preserve">
<style type="text/css">
	.st0{fill:#3E3935;}
	.st1{fill:#009FE3;}
</style>
<g>
	<g>
		<path class="st0" d="M95.2,117.5H42.3V98.7h127.6v18.8h-52.9v135.7H95.2V117.5z"/>
		<path class="st0" d="M235.8,98.7h89.8v18.8h-68.1v48.4h55.4v18.8h-55.4v49.7h71.8v18.8h-93.5V98.7z"/>
		<path class="st0" d="M481.7,208.8h-58.3l-15.3,44.5h-22.3l55.6-154.6h22.7l55.6,154.6h-22.5L481.7,208.8z M452.6,120
			c0,0-3.5,14-6.1,21.9l-17.3,49h46.9l-17.1-49C456.3,134,453,120,453,120H452.6z"/>
		<path class="st0" d="M594.1,98.7h22.8l35.4,83.6c3.6,8.6,7.7,20.8,7.7,20.8h0.4c0,0,4.1-12.2,7.7-20.8l35.5-83.6h22.8l12.5,154.6
			h-21.5l-7.7-97.4c-0.6-9.4-0.2-22.8-0.2-22.8h-0.4c0,0-4.7,14.3-8.4,22.8l-30.8,69.6h-19.3L620,155.9c-3.6-8.3-8.4-23.2-8.4-23.2
			h-0.4c0,0,0.2,13.8-0.4,23.2l-7.4,97.4h-21.7L594.1,98.7z"/>
		<path class="st0" d="M920,98.7h21.4l68.8,100.5c5.7,8.3,12.9,22.3,12.9,22.3h0.5c0,0-1.6-13.7-1.6-22.3V98.7h21.7v154.6h-21.2
			l-69-100.3c-5.7-8.6-12.9-22.6-12.9-22.6h-0.5c0,0,1.6,13.8,1.6,22.6v100.3H920V98.7z"/>
		<path class="st0" d="M1129.6,98.7h89.7v18.8h-68.1v48.4h55.4v18.8h-55.4v49.7h71.8v18.8h-93.4V98.7z"/>
		<path class="st0" d="M1331.9,117.5h-53V98.7h127.6v18.8h-53v135.7h-21.7V117.5z"/>
		<path class="st0" d="M1472.9,219.1c0,0,16.4,16.6,39.4,16.6c14.5,0,26.8-8.1,26.8-22.7c0-33.5-74.9-26.3-74.9-73.8
			c0-24.1,20.8-43.1,49.9-43.1c28.7,0,43.8,15.6,43.8,15.6l-9.8,17.9c0,0-14.2-13.3-33.9-13.3c-16.5,0-28,10.3-28,22.5
			c0,32,74.9,23.4,74.9,73.6c0,23.8-18.4,43.6-49,43.6c-32.8,0-51.2-20.4-51.2-20.4L1472.9,219.1z"/>
		<path class="st0" d="M1704.8,96.1c44.7,0,79.2,34.4,79.2,78.8c0,45.6-34.6,81-79.2,81c-44.7,0-79.5-35.5-79.5-81
			C1625.3,130.5,1660.1,96.1,1704.8,96.1z M1704.8,236c31.5,0,56.9-26.3,56.9-61.1c0-33.7-25.3-59.1-56.9-59.1
			c-31.5,0-57.2,25.4-57.2,59.1C1647.7,209.7,1673.3,236,1704.8,236z"/>
		<path class="st0" d="M1859.4,98.7h21.7v135.7h69.2v18.8h-90.9V98.7z"/>
	</g>
	<path class="st1" d="M2252.2,290.9c-59.4-10.5-99.3-66.4-90.3-125.8c0-0.7,0.2-1.3,0.3-2c0-0.2,0-0.4,0.1-0.6l0,0
		c2.1-12,7.3-23.5,15.6-33.5c14.5-17.3,35.4-25.9,56.2-25.5c-37.3-9.5-78.5,2.2-104.9,33.7c-36.7,43.8-31,109,12.7,145.7v0
		c56.8,47.7,140.2,42.9,191.3-9.2C2310.3,289.1,2281.6,296.1,2252.2,290.9z M2275.7,117.8c1,0.8,1.9,1.5,2.9,2.3l0,0
		c27.4,23,33.2,62.2,15.2,91.8c26.9-27.5,37.3-69.1,23.2-107.7c-19.5-53.7-78.9-81.4-132.6-61.8v-0.1c-22.6,8.2-43.3,22.2-59.9,41.9
		c-31,37-39.8,85.3-27.8,128.6c-1.9-27.7,6.4-56.1,25.6-79C2161,87.8,2228.9,81.1,2275.7,117.8z M2267.5,38.1
		c25,12.1,45.6,33.6,55.8,61.8c20.7,56.8-8,119.6-64.2,141.3c-0.2,0-0.3,0.1-0.5,0.2c-0.5,0.2-1,0.4-1.5,0.6v0
		c-23.2,8.4-50.1,4.6-70.3-12.4c-7-5.8-12.6-12.8-16.7-20.4c10.4,37.1,41.2,66.9,81.7,74.1c56.2,9.9,109.9-27.7,119.8-83.9l0.1,0
		c8.4-48-8.2-99-48.2-132.6C2306.6,52.7,2287.5,43.1,2267.5,38.1z"/>
</g>
</svg>
